HIERARCHY
ROOT Hips
{
 OFFSET 0.000000 0.000000 0.000000
 CHANNELS 6 Xposition Yposition Zposition Yrotation Xrotation Zrotation
 JOINT Chest
 {
  OFFSET 0.000000 9.585900 0.002600
  CHANNELS 3 Yrotation Xrotation Zrotation
  JOINT Chest2
  {
   OFFSET 0.000000 9.601200 -0.005300
   CHANNELS 3 Yrotation Xrotation Zrotation
   JOINT Chest3
   {
    OFFSET 0.000000 9.561800 0.000000
    CHANNELS 3 Yrotation Xrotation Zrotation
    JOINT Chest4
    {
     OFFSET 0.000000 9.552100 0.000000
     CHANNELS 3 Yrotation Xrotation Zrotation
     JOINT Neck
     {
      OFFSET 0.000000 14.453000 0.000000
      CHANNELS 3 Yrotation Xrotation Zrotation
      JOINT Head
      {
       OFFSET 0.000000 8.936500 -0.011300
       CHANNELS 3 Yrotation Xrotation Zrotation
       End Site
       {
        OFFSET 0.000000 17.073600 -0.006000
       }
      }
     }
     JOINT RightCollar
     {
      OFFSET -2.921100 9.558500 0.000000
      CHANNELS 3 Yrotation Xrotation Zrotation
      JOINT RightShoulder
      {
       OFFSET -13.519700 0.000000 0.000000
       CHANNELS 3 Yrotation Xrotation Zrotation
       JOINT RightElbow
       {
        OFFSET 0.000000 -29.696600 0.000000
        CHANNELS 3 Yrotation Xrotation Zrotation
        JOINT RightWrist
        {
         OFFSET 0.000000 -24.004700 0.000000
         CHANNELS 3 Yrotation Xrotation Zrotation
         End Site
         {
          OFFSET 0.000000 -17.728500 0.000000
         }
        }
       }
      }
     }
     JOINT LeftCollar
     {
      OFFSET 2.921100 9.558500 0.000000
      CHANNELS 3 Yrotation Xrotation Zrotation
      JOINT LeftShoulder
      {
       OFFSET 13.519700 0.000000 0.000000
       CHANNELS 3 Yrotation Xrotation Zrotation
       JOINT LeftElbow
       {
        OFFSET 0.000000 -29.696600 0.000000
        CHANNELS 3 Yrotation Xrotation Zrotation
        JOINT LeftWrist
        {
         OFFSET 0.000000 -24.004700 0.000000
         CHANNELS 3 Yrotation Xrotation Zrotation
         End Site
         {
          OFFSET 0.000000 -17.728500 0.000000
         }
        }
       }
      }
     }
    }
   }
  }
 }
 JOINT RightHip
 {
  OFFSET -7.771700 -0.012900 -0.001300
  CHANNELS 3 Yrotation Xrotation Zrotation
  JOINT RightKnee
  {
   OFFSET 0.000000 -40.869800 0.001200
   CHANNELS 3 Yrotation Xrotation Zrotation
   JOINT RightAnkle
   {
    OFFSET 0.000000 -39.717900 0.002100
    CHANNELS 3 Yrotation Xrotation Zrotation
    JOINT RightToe
    {
     OFFSET 0.000000 -4.965400 11.033500
     CHANNELS 3 Yrotation Xrotation Zrotation
     End Site
     {
      OFFSET 0.000000 -1.423100 5.872300
     }
    }
   }
  }
 }
 JOINT LeftHip
 {
  OFFSET 7.771700 -0.012900 -0.001300
  CHANNELS 3 Yrotation Xrotation Zrotation
  JOINT LeftKnee
  {
   OFFSET 0.000000 -40.869800 0.001200
   CHANNELS 3 Yrotation Xrotation Zrotation
   JOINT LeftAnkle
   {
    OFFSET 0.000000 -39.717900 0.002100
    CHANNELS 3 Yrotation Xrotation Zrotation
    JOINT LeftToe
    {
     OFFSET 0.000000 -4.965400 11.033500
     CHANNELS 3 Yrotation Xrotation Zrotation
     End Site
     {
      OFFSET 0.000000 -1.423100 5.872300
     }
    }
   }
  }
 }
}
MOTION
Frames: 8
Frame Time: 0.008333
0.000000 85.388000 0.000000 0.000000 -5.767877 0.000000 0.000000 11.653817 0.000000 0.000000 -5.885947 0.000000 0.000000 -0.000000 0.000000 0.000000 -0.000000 0.000000 0.000000 12.528835 0.000000 0.000000 0.711642 0.000000 0.000000 -0.000000 0.000000 0.000000 0.000000 -90.000000 0.000000 -2.309062 0.000000 0.000000 2.309062 0.000000 0.000000 -0.000000 0.000000 0.000000 -0.000000 90.000000 0.000000 -2.309062 0.000000 0.000000 2.309062 0.000000 0.000000 8.520406 0.000000 0.000000 1.905762 0.000000 -0.000000 -4.658285 0.000000 0.000000 -0.000000 0.000000 0.000000 8.520406 0.000000 0.000000 1.905762 0.000000 -0.000000 -4.658285 0.000000 0.000000 -0.000000 0.000000
-48.640365 50.581911 1.577312 161.191259 -8.456344 0.089645 4.333929 8.337168 0.892682 0.220990 0.457383 -0.012313 0.338668 0.801324 -0.028961 3.452970 7.829497 -0.046976 2.252860 16.609298 0.059827 4.182865 -5.026504 -0.709435 2.013156 5.069988 0.069518 -7.882079 -13.079503 -6.349319 -72.262916 -70.126978 97.946430 -4.240011 -1.762973 -33.791422 -7.161738 1.141393 -0.101763 19.993292 -7.484417 3.622846 97.842440 -73.720390 -125.907299 5.228740 -1.077641 22.378009 -2.338401 -72.027213 -1.720354 -115.624209 81.669387 -113.361826 -0.425145 -14.911219 -0.947678 0.027524 1.025866 -0.069274 -8.076304 -75.521475 25.878803 111.082551 78.292060 109.011506 -15.041232 -21.252567 -0.684645 -0.885018 -1.338279 -0.409298
-48.632241 50.583031 1.569546 161.136108 -8.455700 0.077799 4.328257 8.347900 0.891753 0.203445 0.458865 -0.015610 0.337900 0.799344 -0.028695 3.483400 7.819206 -0.041287 2.251908 16.643737 0.066918 4.207686 -4.954875 -0.698257 2.007049 5.066500 0.075323 -7.908704 -13.135510 -6.463382 -72.224425 -70.102539 97.813700 -4.283484 -1.728678 -33.929070 -7.188464 1.133366 -0.106518 20.049417 -7.498436 3.699932 97.337595 -73.612121 -125.406366 5.276925 -1.081586 22.446431 -2.282222 -72.015530 -1.716453 -115.634109 81.679273 -113.336571 -0.424785 -14.929312 -0.955666 0.025137 1.040540 -0.057362 -8.091720 -75.520589 25.953880 111.205761 78.293378 109.144124 -15.032571 -21.254894 -0.685814 -0.894960 -1.338204 -0.409407
-48.622977 50.585180 1.555204 161.044268 -8.486726 0.077901 4.347074 8.395396 0.883734 0.202926 0.457725 -0.015538 0.381035 0.789005 -0.021526 3.497941 7.814863 -0.039074 2.230699 16.668159 0.072269 4.217346 -4.879148 -0.683160 1.966431 5.060098 0.080494 -7.936805 -13.184001 -6.579078 -72.163892 -70.096939 97.654633 -4.322919 -1.688244 -34.077091 -7.248874 1.127394 -0.106076 20.100342 -7.502425 3.780766 96.857335 -73.521434 -124.904467 5.322462 -1.077251 22.515593 -2.181164 -71.979392 -1.717396 -115.662064 81.680671 -113.339559 -0.429957 -14.929871 -0.957204 0.026605 1.036538 -0.055797 -8.017189 -75.486132 25.974981 111.379684 78.272369 109.329988 -15.036075 -21.277217 -0.684706 -0.907406 -1.350841 -0.413072
-48.617590 50.585889 1.550146 161.012205 -8.452735 0.072286 4.351576 8.368338 0.882682 0.176716 0.464821 -0.019700 0.403259 0.779823 -0.018108 3.467530 7.812716 -0.042127 2.280456 16.672866 0.072573 4.200074 -4.803768 -0.657340 1.964158 5.052448 0.082234 -7.961820 -13.227554 -6.694803 -72.101962 -70.108812 97.492515 -4.359736 -1.641460 -34.225993 -7.257653 1.122520 -0.102384 20.142176 -7.500768 3.864411 96.623770 -73.438007 -124.637598 5.380065 -1.007357 22.612218 -2.159501 -72.010590 -1.700149 -115.673184 81.679542 -113.337084 -0.419646 -14.925236 -0.947311 0.015749 1.029927 -0.065248 -8.030052 -75.515002 26.029788 111.425847 78.273173 109.380280 -15.062258 -21.282248 -0.682503 -0.881123 -1.348151 -0.405659
-48.613832 50.586616 1.544617 160.990035 -8.417523 0.073570 4.349095 8.341551 0.874306 0.149426 0.472220 -0.023721 0.404423 0.777886 -0.018043 3.400868 7.815331 -0.047512 2.345873 16.681730 0.074761 4.176302 -4.738846 -0.614986 1.945904 5.038135 0.067036 -7.926212 -13.268638 -6.805986 -72.053703 -70.130232 97.348410 -4.392951 -1.590316 -34.369459 -7.203945 1.109061 -0.094445 20.177760 -7.495962 3.947628 96.411255 -73.356781 -124.389494 5.404152 -0.923464 22.725512 -2.121866 -72.042759 -1.711297 -115.687631 81.677572 -113.337167 -0.408153 -14.925976 -0.949898 0.009502 1.031003 -0.044543 -8.027094 -75.547659 26.052602 111.468314 78.269715 109.426657 -15.083713 -21.281145 -0.680771 -0.905429 -1.324256 -0.403689
-48.607996 50.588044 1.534696 160.972925 -8.413800 0.068656 4.312170 8.353617 0.864899 0.178560 0.464629 -0.019074 0.337881 0.795195 -0.027191 3.434322 7.798205 -0.042721 2.355817 16.692066 0.081308 4.189342 -4.733217 -0.606534 1.938089 5.036489 0.051299 -7.970662 -13.306572 -6.910511 -72.011326 -70.151599 97.220976 -4.420756 -1.540056 -34.504186 -7.201661 1.110103 -0.078991 20.212910 -7.487701 4.025893 95.772009 -73.375553 -123.644532 5.410820 -0.982038 22.746208 -2.074421 -72.042927 -1.731519 -115.767418 81.679258 -113.401575 -0.398700 -14.923625 -0.943858 -0.010032 1.019556 -0.047647 -8.042400 -75.544855 26.094280 111.548349 78.269507 109.506106 -15.100961 -21.290847 -0.685750 -0.879317 -1.317364 -0.390967
-48.602332 50.588790 1.529000 160.950506 -8.390018 0.054877 4.290332 8.347329 0.866121 0.201099 0.455004 -0.015297 0.349254 0.790534 -0.025488 3.388202 7.804072 -0.047023 2.362131 16.695488 0.087862 4.206348 -4.727166 -0.600674 1.962760 5.031691 0.040996 -8.059607 -13.335717 -7.016854 -71.969590 -70.167753 97.107574 -4.444343 -1.492832 -34.629362 -7.195186 1.117100 -0.058617 20.251859 -7.474855 4.099204 95.390631 -73.387360 -123.178263 5.428526 -0.976270 22.805518 -2.009768 -72.062723 -1.750135 -115.774976 81.667880 -113.380240 -0.400156 -14.920761 -0.939792 -0.011905 1.013335 -0.044994 -8.112331 -75.562799 26.185670 111.606281 78.258346 109.559767 -15.077519 -21.299451 -0.693009 -0.867491 -1.308554 -0.387307
